<svg id="visual" viewBox="0 0 900 600" width="900" height="600" xmlns="http://www.w3.org/2000/svg" xmlns:xlink="http://www.w3.org/1999/xlink" version="1.1"><path d="M0 223L180 127L360 229L540 121L720 91L900 115L900 0L720 0L540 0L360 0L180 0L0 0Z" fill="#8bc6f9"></path><path d="M0 283L180 199L360 355L540 253L720 253L900 205L900 113L720 89L540 119L360 227L180 125L0 221Z" fill="#75bcf8"></path><path d="M0 367L180 379L360 451L540 391L720 457L900 343L900 203L720 251L540 251L360 353L180 197L0 281Z" fill="#5db1f7"></path><path d="M0 433L180 487L360 499L540 445L720 529L900 445L900 341L720 455L540 389L360 449L180 377L0 365Z" fill="#4aa3eb"></path><path d="M0 523L180 559L360 553L540 517L720 559L900 517L900 443L720 527L540 443L360 497L180 485L0 431Z" fill="#4190d3"></path><path d="M0 601L180 601L360 601L540 601L720 601L900 601L900 515L720 557L540 515L360 551L180 557L0 521Z" fill="#377ebb"></path></svg>