<svg id="visual" viewBox="0 0 900 600" width="900" height="600" xmlns="http://www.w3.org/2000/svg" xmlns:xlink="http://www.w3.org/1999/xlink" version="1.1"><path d="M0 235L37.5 235C75 235 150 235 225 220C300 205 375 175 450 168C525 161 600 177 675 184C750 191 825 189 862.5 188L900 187L900 0L862.5 0C825 0 750 0 675 0C600 0 525 0 450 0C375 0 300 0 225 0C150 0 75 0 37.5 0L0 0Z" fill="#ffa35e"></path><path d="M0 349L37.5 349C75 349 150 349 225 356C300 363 375 377 450 381C525 385 600 379 675 365C750 351 825 329 862.5 318L900 307L900 185L862.5 186C825 187 750 189 675 182C600 175 525 159 450 166C375 173 300 203 225 218C150 233 75 233 37.5 233L0 233Z" fill="#fc8e3b"></path><path d="M0 445L37.5 451C75 457 150 469 225 476C300 483 375 485 450 481C525 477 600 467 675 461C750 455 825 453 862.5 452L900 451L900 305L862.5 316C825 327 750 349 675 363C600 377 525 383 450 379C375 375 300 361 225 354C150 347 75 347 37.5 347L0 347Z" fill="#f7770f"></path><path d="M0 529L37.5 533C75 537 150 545 225 547C300 549 375 545 450 539C525 533 600 525 675 520C750 515 825 513 862.5 512L900 511L900 449L862.5 450C825 451 750 453 675 459C600 465 525 475 450 479C375 483 300 481 225 474C150 467 75 455 37.5 449L0 443Z" fill="#d5670f"></path><path d="M0 601L37.5 601C75 601 150 601 225 601C300 601 375 601 450 601C525 601 600 601 675 601C750 601 825 601 862.5 601L900 601L900 509L862.5 510C825 511 750 513 675 518C600 523 525 531 450 537C375 543 300 547 225 545C150 543 75 535 37.5 531L0 527Z" fill="#b5580e"></path></svg>