<svg id="visual" viewBox="0 0 900 600" width="900" height="600" xmlns="http://www.w3.org/2000/svg" xmlns:xlink="http://www.w3.org/1999/xlink" version="1.1"><path d="M0 205L50 210C100 215 200 225 300 210C400 195 500 155 600 134C700 113 800 111 850 110L900 109L900 0L850 0C800 0 700 0 600 0C500 0 400 0 300 0C200 0 100 0 50 0L0 0Z" fill="#8bc6f9"></path><path d="M0 343L50 342C100 341 200 339 300 325C400 311 500 285 600 265C700 245 800 231 850 224L900 217L900 107L850 108C800 109 700 111 600 132C500 153 400 193 300 208C200 223 100 213 50 208L0 203Z" fill="#6fb9f8"></path><path d="M0 427L50 433C100 439 200 451 300 454C400 457 500 451 600 444C700 437 800 429 850 425L900 421L900 215L850 222C800 229 700 243 600 263C500 283 400 309 300 323C200 337 100 339 50 340L0 341Z" fill="#4facf7"></path><path d="M0 493L50 496C100 499 200 505 300 509C400 513 500 515 600 510C700 505 800 493 850 487L900 481L900 419L850 423C800 427 700 435 600 442C500 449 400 455 300 452C200 449 100 437 50 431L0 425Z" fill="#4395d9"></path><path d="M0 601L50 601C100 601 200 601 300 601C400 601 500 601 600 601C700 601 800 601 850 601L900 601L900 479L850 485C800 491 700 503 600 508C500 513 400 511 300 507C200 503 100 497 50 494L0 491Z" fill="#377ebb"></path></svg>