<svg id="visual" viewBox="0 0 900 600" width="900" height="600" xmlns="http://www.w3.org/2000/svg" xmlns:xlink="http://www.w3.org/1999/xlink" version="1.1"><path d="M0 73L18.8 73C37.7 73 75.3 73 112.8 74C150.3 75 187.7 77 225.2 75C262.7 73 300.3 67 337.8 68C375.3 69 412.7 77 450.2 82C487.7 87 525.3 89 562.8 91C600.3 93 637.7 95 675.2 90C712.7 85 750.3 73 787.8 74C825.3 75 862.7 89 881.3 96L900 103L900 0L881.3 0C862.7 0 825.3 0 787.8 0C750.3 0 712.7 0 675.2 0C637.7 0 600.3 0 562.8 0C525.3 0 487.7 0 450.2 0C412.7 0 375.3 0 337.8 0C300.3 0 262.7 0 225.2 0C187.7 0 150.3 0 112.8 0C75.3 0 37.7 0 18.8 0L0 0Z" fill="#fffaf3"></path><path d="M0 133L18.8 134C37.7 135 75.3 137 112.8 136C150.3 135 187.7 131 225.2 131C262.7 131 300.3 135 337.8 140C375.3 145 412.7 151 450.2 158C487.7 165 525.3 173 562.8 175C600.3 177 637.7 173 675.2 167C712.7 161 750.3 153 787.8 154C825.3 155 862.7 165 881.3 170L900 175L900 101L881.3 94C862.7 87 825.3 73 787.8 72C750.3 71 712.7 83 675.2 88C637.7 93 600.3 91 562.8 89C525.3 87 487.7 85 450.2 80C412.7 75 375.3 67 337.8 66C300.3 65 262.7 71 225.2 73C187.7 75 150.3 73 112.8 72C75.3 71 37.7 71 18.8 71L0 71Z" fill="#fff9f0"></path><path d="M0 313L18.8 305C37.7 297 75.3 281 112.8 275C150.3 269 187.7 273 225.2 271C262.7 269 300.3 261 337.8 262C375.3 263 412.7 273 450.2 288C487.7 303 525.3 323 562.8 323C600.3 323 637.7 303 675.2 301C712.7 299 750.3 315 787.8 326C825.3 337 862.7 343 881.3 346L900 349L900 173L881.3 168C862.7 163 825.3 153 787.8 152C750.3 151 712.7 159 675.2 165C637.7 171 600.3 175 562.8 173C525.3 171 487.7 163 450.2 156C412.7 149 375.3 143 337.8 138C300.3 133 262.7 129 225.2 129C187.7 129 150.3 133 112.8 134C75.3 135 37.7 133 18.8 132L0 131Z" fill="#fff7ed"></path><path d="M0 391L18.8 394C37.7 397 75.3 403 112.8 405C150.3 407 187.7 405 225.2 400C262.7 395 300.3 387 337.8 389C375.3 391 412.7 403 450.2 410C487.7 417 525.3 419 562.8 416C600.3 413 637.7 405 675.2 410C712.7 415 750.3 433 787.8 445C825.3 457 862.7 463 881.3 466L900 469L900 347L881.3 344C862.7 341 825.3 335 787.8 324C750.3 313 712.7 297 675.2 299C637.7 301 600.3 321 562.8 321C525.3 321 487.7 301 450.2 286C412.7 271 375.3 261 337.8 260C300.3 259 262.7 267 225.2 269C187.7 271 150.3 267 112.8 273C75.3 279 37.7 295 18.8 303L0 311Z" fill="#fff0dc"></path><path d="M0 601L18.8 601C37.7 601 75.3 601 112.8 601C150.3 601 187.7 601 225.2 601C262.7 601 300.3 601 337.8 601C375.3 601 412.7 601 450.2 601C487.7 601 525.3 601 562.8 601C600.3 601 637.7 601 675.2 601C712.7 601 750.3 601 787.8 601C825.3 601 862.7 601 881.3 601L900 601L900 467L881.3 464C862.7 461 825.3 455 787.8 443C750.3 431 712.7 413 675.2 408C637.7 403 600.3 411 562.8 414C525.3 417 487.7 415 450.2 408C412.7 401 375.3 389 337.8 387C300.3 385 262.7 393 225.2 398C187.7 403 150.3 405 112.8 403C75.3 401 37.7 395 18.8 392L0 389Z" fill="#ffe9cc"></path></svg>